<mxfile host="app.diagrams.net" modified="2021-04-15T07:50:18.639Z" agent="5.0 (Macintosh; Intel Mac OS X 11_0_1) AppleWebKit/537.36 (KHTML, like Gecko) Chrome/89.0.4389.128 Safari/537.36" etag="wYfNMN9lkm6LR-FQposR" version="14.6.0" type="github">
  <diagram id="4XD5JFt1QXYFJOO8aTxh" name="Page-1">
    <mxGraphModel dx="1426" dy="769" grid="1" gridSize="10" guides="1" tooltips="1" connect="1" arrows="1" fold="1" page="1" pageScale="1" pageWidth="1169" pageHeight="827" math="0" shadow="0">
      <root>
        <mxCell id="0" />
        <mxCell id="1" parent="0" />
        <mxCell id="70FJicwV4fQcsNB-qmML-5" style="edgeStyle=orthogonalEdgeStyle;rounded=0;sketch=1;orthogonalLoop=1;jettySize=auto;html=1;exitX=1;exitY=0.5;exitDx=0;exitDy=0;fontFamily=Comic Sans MS;endArrow=none;endFill=0;shadow=0;" edge="1" parent="1" source="70FJicwV4fQcsNB-qmML-2" target="70FJicwV4fQcsNB-qmML-3">
          <mxGeometry relative="1" as="geometry" />
        </mxCell>
        <mxCell id="70FJicwV4fQcsNB-qmML-16" style="edgeStyle=orthogonalEdgeStyle;sketch=1;orthogonalLoop=1;jettySize=auto;html=1;exitX=0.5;exitY=1;exitDx=0;exitDy=0;entryX=0.5;entryY=0;entryDx=0;entryDy=0;fontFamily=Comic Sans MS;endArrow=none;endFill=0;rounded=0;" edge="1" parent="1" source="70FJicwV4fQcsNB-qmML-2" target="70FJicwV4fQcsNB-qmML-15">
          <mxGeometry relative="1" as="geometry" />
        </mxCell>
        <mxCell id="70FJicwV4fQcsNB-qmML-2" value="&lt;span style=&quot;font-size: 18px&quot;&gt;Member&lt;/span&gt;" style="rounded=0;whiteSpace=wrap;html=1;sketch=1;shadow=1;glass=0;fontFamily=Comic Sans MS;fillColor=#e1d5e7;strokeColor=#9673a6;" vertex="1" parent="1">
          <mxGeometry x="480" y="80" width="120" height="60" as="geometry" />
        </mxCell>
        <mxCell id="70FJicwV4fQcsNB-qmML-28" style="edgeStyle=orthogonalEdgeStyle;sketch=1;orthogonalLoop=1;jettySize=auto;html=1;exitX=0.5;exitY=1;exitDx=0;exitDy=0;entryX=0.5;entryY=0;entryDx=0;entryDy=0;shadow=0;fontFamily=Comic Sans MS;startArrow=none;startFill=0;endArrow=none;endFill=0;strokeColor=#000000;" edge="1" parent="1" source="70FJicwV4fQcsNB-qmML-3" target="70FJicwV4fQcsNB-qmML-4">
          <mxGeometry relative="1" as="geometry" />
        </mxCell>
        <mxCell id="70FJicwV4fQcsNB-qmML-3" value="&lt;span style=&quot;font-size: 18px&quot;&gt;MemberPray&lt;/span&gt;" style="rounded=0;whiteSpace=wrap;html=1;sketch=1;shadow=1;glass=0;fontFamily=Comic Sans MS;" vertex="1" parent="1">
          <mxGeometry x="760" y="80" width="120" height="60" as="geometry" />
        </mxCell>
        <mxCell id="70FJicwV4fQcsNB-qmML-4" value="&lt;span style=&quot;font-size: 18px&quot;&gt;Pray&lt;/span&gt;" style="rounded=0;whiteSpace=wrap;html=1;sketch=1;shadow=1;glass=0;fontFamily=Comic Sans MS;" vertex="1" parent="1">
          <mxGeometry x="760" y="280" width="120" height="60" as="geometry" />
        </mxCell>
        <mxCell id="70FJicwV4fQcsNB-qmML-6" value="1" style="text;html=1;align=center;verticalAlign=middle;resizable=0;points=[];autosize=1;strokeColor=none;fontFamily=Comic Sans MS;" vertex="1" parent="1">
          <mxGeometry x="540" y="150" width="20" height="20" as="geometry" />
        </mxCell>
        <mxCell id="70FJicwV4fQcsNB-qmML-7" value="*" style="text;html=1;align=center;verticalAlign=middle;resizable=0;points=[];autosize=1;strokeColor=none;fontFamily=Comic Sans MS;" vertex="1" parent="1">
          <mxGeometry x="730" y="90" width="20" height="20" as="geometry" />
        </mxCell>
        <mxCell id="70FJicwV4fQcsNB-qmML-9" value="*" style="text;html=1;align=center;verticalAlign=middle;resizable=0;points=[];autosize=1;strokeColor=none;fontFamily=Comic Sans MS;" vertex="1" parent="1">
          <mxGeometry x="820" y="150" width="20" height="20" as="geometry" />
        </mxCell>
        <mxCell id="70FJicwV4fQcsNB-qmML-10" value="1" style="text;html=1;align=center;verticalAlign=middle;resizable=0;points=[];autosize=1;strokeColor=none;fontFamily=Comic Sans MS;" vertex="1" parent="1">
          <mxGeometry x="820" y="250" width="20" height="20" as="geometry" />
        </mxCell>
        <mxCell id="70FJicwV4fQcsNB-qmML-30" style="edgeStyle=orthogonalEdgeStyle;sketch=1;orthogonalLoop=1;jettySize=auto;html=1;exitX=1;exitY=0.5;exitDx=0;exitDy=0;entryX=0;entryY=0.5;entryDx=0;entryDy=0;shadow=0;fontFamily=Comic Sans MS;startArrow=none;startFill=0;endArrow=none;endFill=0;strokeColor=#000000;" edge="1" parent="1" source="70FJicwV4fQcsNB-qmML-11" target="70FJicwV4fQcsNB-qmML-2">
          <mxGeometry relative="1" as="geometry" />
        </mxCell>
        <mxCell id="70FJicwV4fQcsNB-qmML-11" value="&lt;span style=&quot;font-size: 18px&quot;&gt;Group&lt;/span&gt;" style="rounded=0;whiteSpace=wrap;html=1;sketch=1;shadow=1;glass=0;fontFamily=Comic Sans MS;" vertex="1" parent="1">
          <mxGeometry x="200" y="80" width="120" height="60" as="geometry" />
        </mxCell>
        <mxCell id="70FJicwV4fQcsNB-qmML-13" value="1" style="text;html=1;align=center;verticalAlign=middle;resizable=0;points=[];autosize=1;strokeColor=none;fontFamily=Comic Sans MS;" vertex="1" parent="1">
          <mxGeometry x="330" y="90" width="20" height="20" as="geometry" />
        </mxCell>
        <mxCell id="70FJicwV4fQcsNB-qmML-14" value="*" style="text;html=1;align=center;verticalAlign=middle;resizable=0;points=[];autosize=1;strokeColor=none;fontFamily=Comic Sans MS;" vertex="1" parent="1">
          <mxGeometry x="450" y="90" width="20" height="20" as="geometry" />
        </mxCell>
        <mxCell id="70FJicwV4fQcsNB-qmML-15" value="&lt;span style=&quot;font-size: 18px&quot;&gt;Invitation&lt;/span&gt;" style="rounded=0;whiteSpace=wrap;html=1;sketch=1;shadow=1;glass=0;fontFamily=Comic Sans MS;" vertex="1" parent="1">
          <mxGeometry x="480" y="280" width="120" height="60" as="geometry" />
        </mxCell>
        <mxCell id="70FJicwV4fQcsNB-qmML-17" value="1" style="text;html=1;align=center;verticalAlign=middle;resizable=0;points=[];autosize=1;strokeColor=none;fontFamily=Comic Sans MS;" vertex="1" parent="1">
          <mxGeometry x="610" y="90" width="20" height="20" as="geometry" />
        </mxCell>
        <mxCell id="70FJicwV4fQcsNB-qmML-18" value="*" style="text;html=1;align=center;verticalAlign=middle;resizable=0;points=[];autosize=1;strokeColor=none;fontFamily=Comic Sans MS;" vertex="1" parent="1">
          <mxGeometry x="540" y="250" width="20" height="20" as="geometry" />
        </mxCell>
        <mxCell id="70FJicwV4fQcsNB-qmML-19" style="edgeStyle=orthogonalEdgeStyle;rounded=1;sketch=1;orthogonalLoop=1;jettySize=auto;html=1;exitX=0.25;exitY=0;exitDx=0;exitDy=0;entryX=0.5;entryY=0;entryDx=0;entryDy=0;fontFamily=Comic Sans MS;endArrow=none;endFill=0;" edge="1" parent="1" source="70FJicwV4fQcsNB-qmML-11" target="70FJicwV4fQcsNB-qmML-11">
          <mxGeometry relative="1" as="geometry" />
        </mxCell>
        <mxCell id="70FJicwV4fQcsNB-qmML-24" style="edgeStyle=orthogonalEdgeStyle;sketch=1;orthogonalLoop=1;jettySize=auto;html=1;exitX=0.5;exitY=0;exitDx=0;exitDy=0;entryX=0.25;entryY=1;entryDx=0;entryDy=0;fontFamily=Comic Sans MS;endArrow=block;endFill=0;curved=1;" edge="1" parent="1" source="70FJicwV4fQcsNB-qmML-22" target="70FJicwV4fQcsNB-qmML-4">
          <mxGeometry relative="1" as="geometry" />
        </mxCell>
        <mxCell id="70FJicwV4fQcsNB-qmML-22" value="&lt;span style=&quot;font-size: 18px&quot;&gt;Me&lt;br&gt;&lt;/span&gt;" style="rounded=0;whiteSpace=wrap;html=1;sketch=1;shadow=1;glass=0;fontFamily=Comic Sans MS;" vertex="1" parent="1">
          <mxGeometry x="680" y="480" width="120" height="60" as="geometry" />
        </mxCell>
        <mxCell id="70FJicwV4fQcsNB-qmML-25" style="edgeStyle=orthogonalEdgeStyle;sketch=1;orthogonalLoop=1;jettySize=auto;html=1;exitX=0.5;exitY=0;exitDx=0;exitDy=0;entryX=0.75;entryY=1;entryDx=0;entryDy=0;shadow=0;fontFamily=Comic Sans MS;startArrow=none;startFill=0;endArrow=block;endFill=0;curved=1;" edge="1" parent="1" source="70FJicwV4fQcsNB-qmML-23" target="70FJicwV4fQcsNB-qmML-4">
          <mxGeometry relative="1" as="geometry" />
        </mxCell>
        <mxCell id="70FJicwV4fQcsNB-qmML-23" value="&lt;span style=&quot;font-size: 18px&quot;&gt;Other&lt;/span&gt;" style="rounded=0;whiteSpace=wrap;html=1;sketch=1;shadow=1;glass=0;fontFamily=Comic Sans MS;" vertex="1" parent="1">
          <mxGeometry x="840" y="480" width="120" height="60" as="geometry" />
        </mxCell>
      </root>
    </mxGraphModel>
  </diagram>
</mxfile>
